HIERARCHY
ROOT Hips
{
  OFFSET 90.7885 88.945 -76.2838
  CHANNELS 6 Xposition Yposition Zposition Zrotation Xrotation Yrotation
  JOINT LeftUpLeg
  {
    OFFSET 8.64259 1.95398 -2.38835
    CHANNELS 3 Zrotation Xrotation Yrotation
    JOINT LeftLeg
    {
      OFFSET 43.7702 0 0
      CHANNELS 3 Zrotation Xrotation Yrotation
      JOINT LeftFoot
      {
        OFFSET 40.6238 0 0
        CHANNELS 3 Zrotation Xrotation Yrotation
        JOINT LeftToeBase
        {
          OFFSET 12.7242 0 0
          CHANNELS 3 Zrotation Xrotation Yrotation
          End Site
          {
            OFFSET 0 0 0
          }
        }
      }
    }
  }
  JOINT RightUpLeg
  {
    OFFSET -8.2249 1.95398 -2.59336
    CHANNELS 3 Zrotation Xrotation Yrotation
    JOINT RightLeg
    {
      OFFSET 43.5653 0 0
      CHANNELS 3 Zrotation Xrotation Yrotation
      JOINT RightFoot
      {
        OFFSET 40.6238 0 0
        CHANNELS 3 Zrotation Xrotation Yrotation
        JOINT RightToeBase
        {
          OFFSET 12.7242 0 0
          CHANNELS 3 Zrotation Xrotation Yrotation
          End Site
          {
            OFFSET 0 0 0
          }
        }
      }
    }
  }
  JOINT Spine
  {
    OFFSET 0.165834 0.87714 6.61349
    CHANNELS 3 Zrotation Xrotation Yrotation
    JOINT Spine1
    {
      OFFSET 7.38963 1.71661e-005 0
      CHANNELS 3 Zrotation Xrotation Yrotation
      JOINT Spine2
      {
        OFFSET 11.9445 1.14441e-005 0
        CHANNELS 3 Zrotation Xrotation Yrotation
        JOINT Spine3
        {
          OFFSET 14.7254 4.19617e-005 0
          CHANNELS 3 Zrotation Xrotation Yrotation
          JOINT Spine4
          {
            OFFSET 10.9679 0 0
            CHANNELS 3 Zrotation Xrotation Yrotation
            JOINT RightShoulder
            {
              OFFSET 2.46616 -1.6653 3.69651
              CHANNELS 3 Zrotation Xrotation Yrotation
              JOINT RightArm
              {
                OFFSET 13.0012 0 0
                CHANNELS 3 Zrotation Xrotation Yrotation
                JOINT RightForeArm
                {
                  OFFSET 28.7848 1.52588e-005 0
                  CHANNELS 3 Zrotation Xrotation Yrotation
                  JOINT RightHand
                  {
                    OFFSET 26.5688 1.52588e-005 0
                    CHANNELS 3 Zrotation Xrotation Yrotation
                    End Site
                    {
                      OFFSET 0 0 0
                    }
                  }
                }
              }
            }
            JOINT LeftShoulder
            {
              OFFSET 2.38034 -1.29275 -3.7523
              CHANNELS 3 Zrotation Xrotation Yrotation
              JOINT LeftArm
              {
                OFFSET 16.3182 6.10352e-005 0
                CHANNELS 3 Zrotation Xrotation Yrotation
                JOINT LeftForeArm
                {
                  OFFSET 27.0901 0 0
                  CHANNELS 3 Zrotation Xrotation Yrotation
                  JOINT LeftHand
                  {
                    OFFSET 24.5451 1.52588e-005 0
                    CHANNELS 3 Zrotation Xrotation Yrotation
                    End Site
                    {
                      OFFSET 0 0 0
                    }
                  }
                }
              }
            }
            JOINT Neck
            {
              OFFSET 5.0226 -0.0266342 0
              CHANNELS 3 Zrotation Xrotation Yrotation
              JOINT Head
              {
                OFFSET 6.69363 2.86102e-005 0
                CHANNELS 3 Zrotation Xrotation Yrotation
                End Site
                {
                  OFFSET 0 0 0
                }
              }
            }
          }
        }
      }
    }
  }
}
MOTION
Frames:	9
Frame Time:	0.0416667
-276.579 90.7559 259.927 112.435 57.8048 76.4941 -157.633 -34.058 113.221 -6.48431 28.6943 -0.394055 79.4101 8.93501 -1.86457 27.9938 -0.116159 0.309005 169.603 11.9198 92.3244 -31.6819 -1.75677 3.18383 71.2341 0.46865 1.98347 18.8286 0.739122 0.58219 -1.79953 8.18753 -90.588 10.4882 -3.85432 -0.826233 -1.17719 -3.88693 -0.655569 -23.7484 -3.42767 -1.94759 -3.73573 -3.42765 -1.9476 90.2377 -29.8163 -106.357 35.6292 6.17053 -7.48415 -9.7212 -11.7498 -62.8241 -13.4122 1.01755 -21.2855 -90.0018 -52.1719 79.182 -25.296 3.02108 -18.1846 -72.0733 -30.8458 -80.9755 32.3562 -15.7831 -51.9456 5.76575 -0.296795 -6.95557 -5.72759 0.975223 1.56213 
-271.241 91.1738 253.866 109.855 51.3782 78.4576 -167.897 -35.112 101.154 -15.4867 19.2099 1.89022 55.029 1.52825 1.18651 33.2249 5.09201 -9.45288 168.547 9.86827 90.4648 -36.9665 -10.2195 4.60948 75.3025 -5.74619 -0.574888 15.3127 0.147813 2.26319 -1.02977 8.0685 -90.5612 10.7278 -2.30922 -0.903264 -0.941421 -2.34676 -0.800721 -23.4859 -1.93102 -1.55566 -3.47329 -1.93102 -1.55567 90.0842 -28.7714 -107.069 36.6623 6.06778 -6.38274 -10.4737 -13.0138 -63.149 -14.0866 0.959009 -20.679 -90.2337 -52.0044 78.8082 -25.6426 9.62609 -15.0683 -15.2973 -19.8513 -58.9176 3.72479 0.0803342 -17.9706 5.45465 -0.0732795 -5.04991 -5.52884 0.838889 1.05842 
-266.447 92.2717 249.073 103.954 43.9435 84.2602 -169.319 -6.59563 99.2383 -53.101 13.072 1.75616 60.2526 1.52967 0.1547 11.5855 3.38542 -0.899295 170.815 5.80697 92.5711 -32.4272 -16.2106 2.24449 76.2276 -7.79691 -2.37659 17.4967 0.956637 0.439934 0.138878 7.84513 -90.6619 11.1815 -0.0312015 -1.31482 -0.49006 -0.0890588 -1.31218 -23.0203 0.365365 -1.26342 -3.00769 0.365338 -1.26343 89.7692 -28.1991 -107.935 37.5849 6.88823 -7.3511 -12.0769 -15.1359 -63.8255 -14.1956 0.790153 -20.4827 -89.9377 -52.864 79.4163 -23.0804 12.1083 -16.23 -16.4339 -22.6046 -57.2608 -0.100447 -0.135782 -11.9565 4.02978 -0.10989 -2.85231 -4.42069 0.369662 0.916284 
-261.592 94.0455 246.793 99.0268 35.9073 89.091 -166.581 10.7401 99.1913 -57.7769 4.70072 -1.94751 70.8357 5.381 1.05712 13.6814 1.74447 0.380177 175.863 1.4644 96.106 -23.8916 -17.2649 -1.78348 74.238 -7.27482 -0.398795 18.1118 0.565285 1.04164 1.47312 7.59429 -90.736 11.7046 2.58474 -1.73824 0.0347625 2.50576 -1.85033 -22.5169 2.98754 -0.880661 -2.5042 2.98754 -0.880665 90.0213 -28.291 -107.385 38.249 5.84373 -9.13717 -9.58438 -11.4631 -61.0772 -15.414 1.16615 -20.0283 -89.6968 -52.7499 79.7434 -22.7951 10.3571 -16.7353 -15.0241 -21.3932 -57.5498 -4.15115 -0.0379421 -9.67608 1.76335 -0.305095 -0.337032 -3.81214 -0.235658 -0.506145 
-256.158 94.7115 242.707 96.5977 30.3344 90.3788 -169.016 21.2986 99.048 -41.1992 -8.36454 -5.40897 72.8987 5.04903 -5.33395 12.9208 -2.9487 5.66696 177.447 -4.94161 95.8885 -16.8106 -19.5626 -4.44385 74.1599 -7.29818 1.68212 19.343 0.382828 1.15833 2.276 7.53685 -90.6761 11.8386 4.20824 -1.79674 0.172954 4.12512 -1.98045 -22.4158 4.55333 -0.446575 -2.40314 4.55334 -0.446578 90.2676 -26.4013 -107.655 39.0641 3.72873 -11.1642 -8.98042 -11.0192 -61.5621 -15.653 1.19303 -19.6288 -89.5243 -54.1488 80.2639 -20.2611 8.23307 -16.6441 -13.4546 -19.5219 -58.7137 -5.89294 0.017539 -7.88509 2.69472 0.242319 3.41071 -3.41463 -0.305456 -0.85877 
-250.077 93.676 235.719 97.0335 27.9441 88.0317 -174.816 19.118 97.4173 -12.5848 -9.65834 -4.42337 65.9864 2.76633 -2.56287 19.4698 -2.55037 4.64715 172.698 -12.2602 89.3615 -14.6799 -26.8462 -4.83938 78.7729 -9.59728 0.955278 19.9859 1.46789 -1.0534 2.57007 7.72981 -90.3901 11.4491 4.93147 -1.27798 -0.213376 4.87044 -1.49426 -22.8239 5.08698 0.267053 -2.81123 5.08698 0.267049 88.8094 -27.9505 -109.995 35.3726 1.9133 -12.499 -7.9919 -7.61795 -62.7662 -15.0366 1.37952 -20.232 -89.2999 -55.1479 80.7612 -16.2887 7.94129 -15.2156 -19.368 -20.4819 -64.2976 -5.00478 0.0477927 -10.3424 3.78782 0.614762 5.03119 -3.49633 -0.253335 -0.620082 
-242.88 91.6152 227.876 99.5535 26.0719 83.363 -177.03 17.0567 93.9827 -8.4322 -13.066 -3.3094 63.2937 1.77837 -3.26006 14.2294 -2.15809 4.62644 165.577 -18.0699 79.1172 -18.4984 -33.2905 -5.74299 83.2735 -12.4035 -0.339629 24.0296 0.950597 -1.11094 2.58369 8.07569 -90.124 10.7507 5.088 -0.712088 -0.91055 5.05171 -0.935894 -23.5252 5.06615 0.854044 -3.51257 5.06614 0.854038 88.6181 -26.7092 -110.94 34.7345 1.01283 -14.488 -9.35339 -10.1729 -62.446 -15.6451 1.23878 -19.8837 -89.2939 -60.157 81.6677 -14.3322 3.56852 -14.7845 -18.0121 -18.4673 -66.1429 -5.82375 0.0498507 -9.04412 3.8145 1.24966 8.15263 -2.55977 -0.161384 -2.04461 
-235 91.2499 219.186 99.1763 27.2846 81.4735 -173.846 19.5044 90.6241 -21.8047 -2.80728 -5.94252 60.7359 0.796781 -2.12146 8.13784 -2.00837 4.98644 166.293 -18.1651 77.2091 -29.2997 -29.7156 -9.84598 71.9984 -6.6598 -3.02796 42.5801 -2.92959 6.05965 2.29145 7.87341 -89.6917 11.1316 4.70413 0.153398 -0.530775 4.7063 -0.0542607 -23.129 4.44009 1.56291 -3.11634 4.44009 1.56292 88.2451 -28.8062 -110.747 36.77 1.04034 -13.5551 -10.6035 -11.2909 -61.9607 -14.5569 0.988041 -19.8424 -89.257 -56.1127 81.0013 -20.724 0.221732 -11.0018 -15.7705 -16.732 -66.6699 -6.64824 0.0665848 -8.57503 5.06548 0.76256 2.34464 -3.73629 0.305037 0.918852 
-227.922 91.9285 211.513 98.1481 30.5348 80.9914 -172.465 18.788 87.8119 -30.6391 2.13039 -6.80762 68.1447 3.9019 0.713325 10.8569 1.2643 1.29621 175.018 -6.51212 81.0372 -54.2987 -22.1528 -10.1548 55.6799 1.2877 0.203936 23.2642 -1.93003 5.19048 1.61336 7.65687 -89.6175 11.558 3.38882 0.413448 -0.108543 3.40376 0.263711 -22.6742 3.10775 1.41375 -2.66158 3.10776 1.41374 88.6972 -27.1735 -110.568 38.9158 0.519171 -11.1927 -9.58688 -10.3249 -62.0745 -16.6753 1.1344 -18.1914 -89.1447 -56.4635 81.2266 -21.3819 0.525806 -8.48725 -14.6527 -16.0567 -66.6791 -4.64406 -0.0114743 -8.35545 6.58151 0.926878 2.73046 -4.87573 0.401156 -1.07482 
